<svg width="169" height="172" viewBox="0 0 169 172" fill="none" xmlns="http://www.w3.org/2000/svg">
<g id="Frame 48" clip-path="url(#clip0_612_64)">
<g id="&#215;&#162;&#215;&#153;&#215;&#146;&#215;&#149;&#215;&#156; &#215;&#151;&#215;&#156;&#215;&#149;&#215;&#156;">
<ellipse id="Ellipse 44" cx="83.4552" cy="86.6497" rx="82.9553" ry="83.4405" fill="#59FFDA"/>
<g id="Vector">
<path d="M83.3448 151.469C84.6722 151.469 85.3785 152.029 85.2446 153.819H84.2825C84.3921 152.662 84.0633 152.273 83.3814 152.273C82.7481 152.273 82.4558 152.638 82.468 153.186C82.4802 153.783 82.6994 154.063 83.5397 154.55C84.8549 155.256 85.2202 155.78 85.2202 156.742C85.2202 157.643 84.6722 158.337 83.4179 158.337C82.0296 158.337 81.4694 157.509 81.5668 156.194H82.5045C82.4558 156.925 82.6141 157.546 83.3814 157.546C83.9903 157.546 84.2216 157.168 84.2216 156.693C84.2216 156.133 83.9294 155.841 83.1256 155.378C81.8347 154.696 81.4694 154.197 81.4694 153.162C81.4694 152.102 82.1027 151.469 83.3448 151.469Z" fill="black"/>
<path d="M75.4137 158.857L76.5041 158.968L76.3871 160.119L75.2967 160.008L75.4137 158.857ZM76.1961 151.164L77.2865 151.275L76.6089 157.939L75.5185 157.828L76.1961 151.164Z" fill="black"/>
<path d="M68.4242 156.752C67.2552 156.512 66.9037 155.681 67.2371 154.059L68.1147 149.788L69.1883 150.009L68.3132 154.267C68.0925 155.341 68.2927 155.879 68.9249 156.009C69.6287 156.154 70.0489 155.743 70.2695 154.669L71.1446 150.411L72.2182 150.632L70.87 157.192L69.7964 156.972L69.9287 156.328C69.53 156.755 69.0326 156.877 68.4242 156.752Z" fill="black"/>
<path d="M60.7203 154.091L60.5708 154.568L59.5251 154.24L61.4646 148.058C62.0734 146.118 62.8237 145.638 64.1948 146.068C64.8687 146.28 65.5315 146.73 65.9183 147.043L65.4781 147.633C65.15 147.376 64.6513 147.054 64.1633 146.901C63.3267 146.638 62.9514 146.98 62.4994 148.421L62.4301 148.642C62.8293 148.346 63.2747 148.269 63.7743 148.425C65.0757 148.834 65.2719 150.12 64.5865 152.305C63.8683 154.594 62.9499 155.365 61.695 154.971C61.2186 154.822 60.8898 154.527 60.7203 154.091ZM63.3471 149.095C62.6383 148.873 62.0605 149.738 61.4991 151.528C60.9705 153.213 61.0416 153.962 61.7503 154.185C62.4475 154.403 62.9465 153.871 63.548 151.954C64.1204 150.129 64.0443 149.314 63.3471 149.095Z" fill="black"/>
<path d="M47.4101 149.842L48.3684 150.374L47.807 151.385L46.8487 150.853L47.4101 149.842ZM51.163 143.08L52.1213 143.612L48.8708 149.469L47.9125 148.937L51.163 143.08Z" fill="black"/>
<path d="M44.4432 139.734L44.1533 139.532L44.6194 138.862L45.0792 139.182C45.9988 139.822 46.1169 140.335 45.4768 141.254L42.9236 144.923L43.4034 145.257L42.9721 145.876L42.4923 145.542L41.4488 147.042L40.5492 146.416L41.5927 144.916L40.8631 144.408L41.2944 143.789L42.0241 144.297L44.5285 140.698C44.8625 140.219 44.843 140.012 44.4432 139.734Z" fill="black"/>
<path d="M36.1715 131.42L35.1918 132.351L34.3444 131.46L35.3241 130.528L36.1715 131.42Z" fill="black"/>
<path d="M27.9696 120.73C28.6717 121.856 28.57 122.752 26.9799 123.585L26.471 122.769C27.5108 122.25 27.6675 121.765 27.3068 121.186C26.9718 120.649 26.5072 120.594 26.0486 120.894C25.5486 121.22 25.4269 121.554 25.4579 122.525C25.5542 124.015 25.3031 124.602 24.4866 125.111C23.7219 125.588 22.8429 125.49 22.1794 124.425C21.445 123.247 21.8515 122.334 23.0192 121.721L23.5152 122.516C22.8693 122.861 22.426 123.324 22.8318 123.975C23.1539 124.492 23.5967 124.489 23.9997 124.238C24.4752 123.941 24.5686 123.539 24.5362 122.612C24.4321 121.156 24.6626 120.581 25.541 120.034C26.4401 119.473 27.3125 119.676 27.9696 120.73Z" fill="black"/>
<path d="M17.5036 117.908L17.9863 118.892L16.9476 119.401L16.4649 118.417L17.5036 117.908ZM24.4463 114.502L24.929 115.486L18.9156 118.436L18.4329 117.452L24.4463 114.502Z" fill="black"/>
<path d="M15.5913 110.858C15.1768 109.739 15.6958 109.001 17.2489 108.426L21.3373 106.912L21.7179 107.939L17.641 109.449C16.6132 109.83 16.2621 110.285 16.4863 110.89C16.7358 111.564 17.3068 111.703 18.3346 111.322L22.4116 109.812L22.7922 110.84L16.5112 113.166L16.1306 112.138L16.7473 111.91C16.1733 111.798 15.807 111.44 15.5913 110.858Z" fill="black"/>
<path d="M13.7756 102.916L13.2922 103.041L13.0175 101.98L19.2894 100.356C21.2582 99.8463 22.0618 100.229 22.422 101.621C22.5991 102.304 22.5674 103.105 22.5065 103.599L21.7735 103.537C21.8173 103.123 21.8271 102.529 21.6989 102.034C21.4791 101.185 20.9906 101.048 19.5287 101.426L19.3047 101.484C19.767 101.666 20.0682 102.004 20.1994 102.511C20.5413 103.831 19.553 104.678 17.3366 105.252C15.0141 105.853 13.8738 105.482 13.5442 104.209C13.419 103.725 13.4951 103.29 13.7756 102.916ZM19.4048 102.502C19.2186 101.783 18.1786 101.751 16.3631 102.221C14.6536 102.663 14.0549 103.12 14.2411 103.839C14.4243 104.547 15.1402 104.688 17.0855 104.185C18.9364 103.706 19.588 103.21 19.4048 102.502Z" fill="black"/>
<path d="M10.3439 89.3731L10.3994 90.4677L9.24399 90.5263L9.18847 89.4317L10.3439 89.3731ZM18.067 88.9814L18.1225 90.0761L11.4332 90.4153L11.3777 89.3207L18.067 88.9814Z" fill="black"/>
<path d="M17.3463 81.5028L17.3642 81.15L18.179 81.1914L18.1507 81.7508C18.0939 82.8698 17.7215 83.2411 16.6025 83.1843L12.1389 82.958L12.1093 83.5418L11.3553 83.5035L11.3849 82.9197L9.5605 82.8272L9.61602 81.7326L11.4404 81.8251L11.4854 80.9373L12.2395 80.9755L12.1944 81.8634L16.5729 82.0854C17.1567 82.115 17.3216 81.9893 17.3463 81.5028Z" fill="black"/>
<path d="M20.0315 70.0887L18.7229 69.7499L19.0312 68.5592L20.3398 68.898L20.0315 70.0887Z" fill="black"/>
<path d="M27.9697 51.6958C27.2676 52.8223 26.4186 53.1254 24.9702 52.0648L25.4791 51.2483C26.4029 51.9533 26.9076 51.8804 27.2683 51.3016C27.6033 50.7642 27.4478 50.3229 26.9763 50.0434C26.4635 49.7381 26.1098 49.776 25.252 50.2314C23.9568 50.9739 23.3192 51.007 22.5027 50.4981C21.738 50.0214 21.4387 49.1891 22.1022 48.1247C22.8366 46.9465 23.8357 46.9091 24.9003 47.6875L24.4043 48.4833C23.81 48.0555 23.1992 47.8613 22.7933 48.5124C22.4712 49.0291 22.6692 49.4252 23.0723 49.6764C23.5477 49.9727 23.9503 49.8793 24.7682 49.442C26.0298 48.7072 26.6468 48.6613 27.5252 49.2088C28.4244 49.7693 28.6268 50.6416 27.9697 51.6958Z" fill="black"/>
<path d="M25.8983 41.0571L25.2274 41.9238L24.3126 41.2157L24.9835 40.349L25.8983 41.0571ZM32.0134 45.7906L31.3425 46.6573L26.046 42.5575L26.7169 41.6907L32.0134 45.7906Z" fill="black"/>
<path d="M31.3865 36.2345C32.2087 35.3695 33.0996 35.5106 34.3 36.6516L37.4599 39.6553L36.7047 40.4497L33.5537 37.4544C32.7593 36.6993 32.1965 36.5843 31.7518 37.0521C31.2568 37.5729 31.3833 38.1468 32.1777 38.902L35.3287 41.8973L34.5736 42.6917L29.719 38.077L30.4741 37.2826L30.9508 37.7357C30.7986 37.1711 30.9586 36.6846 31.3865 36.2345Z" fill="black"/>
<path d="M37.7166 31.107L37.3914 30.7282L38.223 30.0143L42.4431 34.9301C43.7678 36.4732 43.7777 37.3634 42.6874 38.2995C42.1515 38.7596 41.4186 39.0837 40.9485 39.2466L40.6811 38.5612C41.072 38.4183 41.6094 38.1656 41.9975 37.8324C42.6628 37.2613 42.5713 36.762 41.5877 35.6163L41.4369 35.4407C41.477 35.936 41.3069 36.3549 40.9096 36.6959C39.8747 37.5844 38.6789 37.0701 37.1876 35.333C35.6249 33.5127 35.4562 32.3253 36.4541 31.4686C36.833 31.1434 37.2569 31.0202 37.7166 31.107ZM40.5669 35.979C41.1305 35.4951 40.7018 34.547 39.4803 33.124C38.33 31.7842 37.6561 31.4479 37.0925 31.9318C36.5381 32.4077 36.7262 33.1129 38.035 34.6376C39.2804 36.0883 40.0125 36.4549 40.5669 35.979Z" fill="black"/>
<path d="M48.3643 22.0607L47.406 22.5926L46.8446 21.581L47.8029 21.0491L48.3643 22.0607ZM52.1172 28.822L51.1589 29.3539L47.9084 23.4976L48.8667 22.9657L52.1172 28.822Z" fill="black"/>
<path d="M58.5127 24.8833L58.8372 24.7441L59.159 25.4939L58.6442 25.7148C57.6146 26.1566 57.1172 25.9858 56.6754 24.9562L54.9129 20.849L54.3757 21.0796L54.078 20.3857L54.6151 20.1552L53.8948 18.4765L54.902 18.0443L55.6223 19.723L56.4393 19.3724L56.737 20.0662L55.9201 20.4168L57.649 24.4456C57.8795 24.9828 58.065 25.0754 58.5127 24.8833Z" fill="black"/>
<path d="M69.9442 22.2655L69.6721 20.9414L70.8769 20.6938L71.149 22.0179L69.9442 22.2655Z" fill="black"/>
<path d="M83.3514 20.9607C82.024 20.9607 81.3176 20.4005 81.4516 18.6104H82.4137C82.3041 19.7673 82.6329 20.157 83.3148 20.157C83.9481 20.157 84.2404 19.7916 84.2282 19.2436C84.216 18.6469 83.9968 18.3668 83.1565 17.8797C81.8413 17.1734 81.4759 16.6497 81.4759 15.6877C81.4759 14.7865 82.024 14.0923 83.2783 14.0923C84.6666 14.0923 85.2268 14.9204 85.1294 16.2357H84.1916C84.2404 15.505 84.082 14.8839 83.3148 14.8839C82.7059 14.8839 82.4745 15.2614 82.4745 15.7364C82.4745 16.2966 82.7668 16.5888 83.5706 17.0516C84.8614 17.7336 85.2268 18.2329 85.2268 19.268C85.2268 20.3275 84.5935 20.9607 83.3514 20.9607Z" fill="black"/>
<path d="M91.2824 13.5723L90.192 13.4614L90.3091 12.3104L91.3995 12.4213L91.2824 13.5723ZM90.5001 21.2657L89.4097 21.1548L90.0873 14.4912L91.1777 14.6021L90.5001 21.2657Z" fill="black"/>
<path d="M98.2802 15.6778C99.4492 15.9181 99.8006 16.7487 99.4673 18.371L98.5896 22.6415L97.5161 22.4209L98.3912 18.1623C98.6118 17.0887 98.4117 16.5503 97.7795 16.4204C97.0757 16.2757 96.6555 16.6867 96.4349 17.7603L95.5597 22.0188L94.4861 21.7982L95.8344 15.2374L96.908 15.458L96.7756 16.1022C97.1744 15.6744 97.6718 15.5528 98.2802 15.6778Z" fill="black"/>
<path d="M105.976 18.3379L106.125 17.8615L107.171 18.1897L105.232 24.3713C104.623 26.3117 103.872 26.7911 102.501 26.3609C101.827 26.1494 101.165 25.699 100.778 25.3862L101.218 24.7968C101.546 25.0528 102.045 25.3752 102.533 25.5284C103.369 25.7909 103.745 25.4491 104.197 24.0083L104.266 23.7875C103.867 24.0835 103.421 24.1607 102.922 24.0039C101.62 23.5956 101.424 22.3088 102.11 20.1243C102.828 17.8353 103.746 17.0641 105.001 17.4578C105.478 17.6073 105.806 17.9019 105.976 18.3379ZM103.349 23.3339C104.058 23.5563 104.636 22.6909 105.197 20.9015C105.726 19.2167 105.655 18.4669 104.946 18.2445C104.249 18.0258 103.75 18.5584 103.148 20.4757C102.576 22.2999 102.652 23.1151 103.349 23.3339Z" fill="black"/>
<path d="M119.286 22.5877L118.328 22.0558L118.889 21.0443L119.847 21.5762L119.286 22.5877ZM115.533 29.3491L114.575 28.8172L117.825 22.9609L118.784 23.4928L115.533 29.3491Z" fill="black"/>
<path d="M122.261 32.6957L122.551 32.8974L122.085 33.5671L121.625 33.2471C120.706 32.6071 120.588 32.0946 121.228 31.175L123.781 27.5067L123.301 27.1728L123.732 26.5531L124.212 26.887L125.256 25.3877L126.155 26.0139L125.112 27.5132L125.841 28.021L125.41 28.6407L124.68 28.1329L122.176 31.7312C121.842 32.2109 121.861 32.4174 122.261 32.6957Z" fill="black"/>
<path d="M130.529 41.0097L131.508 40.0784L132.356 40.9699L131.376 41.9012L130.529 41.0097Z" fill="black"/>
<path d="M141.936 57.4795C141.351 56.2877 141.543 55.4069 143.209 54.7388L143.633 55.6025C142.546 56.0136 142.341 56.4804 142.641 57.0927C142.92 57.6613 143.377 57.7628 143.864 57.5105C144.394 57.2368 144.549 56.9166 144.616 55.9477C144.671 54.4558 144.98 53.8972 145.844 53.4735C146.653 53.0766 147.518 53.2629 148.07 54.3891C148.681 55.6355 148.185 56.5031 146.961 56.9949L146.548 56.153C147.226 55.8749 147.713 55.4593 147.376 54.7705C147.107 54.2238 146.667 54.1823 146.24 54.3915C145.737 54.6382 145.603 55.0293 145.542 55.9547C145.498 57.414 145.211 57.9619 144.281 58.4178C143.33 58.8844 142.483 58.5947 141.936 57.4795Z" fill="black"/>
<path d="M152.06 61.3459L151.68 60.3181L152.765 59.9163L153.145 60.9441L152.06 61.3459ZM144.809 64.0317L144.428 63.0039L150.709 60.6777L151.09 61.7054L144.809 64.0317Z" fill="black"/>
<path d="M153.25 68.5534C153.55 69.7088 152.959 70.3901 151.355 70.8053L147.135 71.8981L146.86 70.837L151.069 69.7473C152.13 69.4726 152.525 69.0557 152.363 68.4309C152.183 67.7353 151.629 67.5391 150.568 67.8139L146.359 68.9036L146.085 67.8425L152.569 66.1637L152.844 67.2247L152.207 67.3896C152.767 67.5591 153.095 67.9522 153.25 68.5534Z" fill="black"/>
<path d="M154.254 76.6383L154.748 76.5626L154.914 77.646L148.51 78.6271C146.5 78.9351 145.739 78.4725 145.521 77.0521C145.414 76.3539 145.527 75.5605 145.637 75.0754L146.36 75.2111C146.275 75.6184 146.205 76.2081 146.282 76.7137C146.415 77.5804 146.887 77.7668 148.38 77.5382L148.609 77.5031C148.167 77.2751 147.902 76.9092 147.822 76.3916C147.616 75.0434 148.685 74.3006 150.948 73.9539C153.319 73.5906 154.416 74.0755 154.615 75.3756C154.691 75.8691 154.571 76.294 154.254 76.6383ZM148.612 76.48C148.725 77.2143 149.756 77.352 151.61 77.068C153.355 76.8006 153.997 76.4066 153.885 75.6723C153.774 74.9501 153.076 74.7367 151.09 75.041C149.2 75.3305 148.501 75.7578 148.612 76.48Z" fill="black"/>
<path d="M156.298 90.4585L156.353 89.3639L157.509 89.4225L157.453 90.5171L156.298 90.4585ZM148.575 90.0668L148.63 88.9722L155.32 89.3114L155.264 90.4061L148.575 90.0668Z" fill="black"/>
<path d="M148.535 97.5796L148.481 97.9287L147.675 97.8052L147.759 97.2514C147.929 96.144 148.337 95.8123 149.445 95.9819L153.862 96.6587L153.951 96.0809L154.697 96.1952L154.609 96.773L156.414 97.0496L156.248 98.133L154.443 97.8564L154.308 98.7352L153.562 98.6208L153.697 97.7421L149.363 97.0782C148.785 96.9897 148.608 97.0981 148.535 97.5796Z" fill="black"/>
<path d="M144.711 108.664L145.978 109.133L145.551 110.287L144.283 109.817L144.711 108.664Z" fill="black"/>
<path d="M138.726 120.734C139.429 119.607 140.278 119.304 141.726 120.365L141.217 121.181C140.293 120.476 139.789 120.549 139.428 121.128C139.093 121.665 139.248 122.107 139.72 122.386C140.233 122.692 140.586 122.654 141.444 122.198C142.739 121.456 143.377 121.423 144.193 121.932C144.958 122.408 145.257 123.241 144.594 124.305C143.86 125.483 142.86 125.521 141.796 124.742L142.292 123.946C142.886 124.374 143.497 124.568 143.903 123.917C144.225 123.401 144.027 123.005 143.624 122.753C143.148 122.457 142.746 122.55 141.928 122.988C140.666 123.723 140.049 123.768 139.171 123.221C138.272 122.66 138.069 121.788 138.726 120.734Z" fill="black"/>
<path d="M140.798 131.373L141.469 130.506L142.384 131.214L141.713 132.081L140.798 131.373ZM134.683 126.639L135.354 125.772L140.65 129.872L139.979 130.739L134.683 126.639Z" fill="black"/>
<path d="M135.31 136.195C134.487 137.06 133.597 136.919 132.396 135.778L129.236 132.774L129.991 131.98L133.143 134.975C133.937 135.73 134.5 135.845 134.944 135.377C135.439 134.857 135.313 134.283 134.519 133.528L131.367 130.532L132.123 129.738L136.977 134.352L136.222 135.147L135.745 134.694C135.898 135.258 135.738 135.745 135.31 136.195Z" fill="black"/>
<path d="M128.979 141.323L129.305 141.702L128.473 142.415L124.253 137.5C122.928 135.957 122.918 135.066 124.009 134.13C124.545 133.67 125.278 133.346 125.748 133.183L126.015 133.869C125.624 134.011 125.087 134.264 124.699 134.597C124.033 135.168 124.125 135.668 125.108 136.813L125.259 136.989C125.219 136.494 125.389 136.075 125.787 135.734C126.821 134.845 128.017 135.36 129.509 137.097C131.071 138.917 131.24 140.104 130.242 140.961C129.863 141.286 129.439 141.41 128.979 141.323ZM126.129 136.451C125.566 136.935 125.994 137.883 127.216 139.306C128.366 140.646 129.04 140.982 129.604 140.498C130.158 140.022 129.97 139.317 128.661 137.792C127.416 136.341 126.684 135.975 126.129 136.451Z" fill="black"/>
<path d="M118.336 150.369L119.294 149.837L119.856 150.849L118.897 151.381L118.336 150.369ZM114.583 143.608L115.541 143.076L118.792 148.932L117.834 149.464L114.583 143.608Z" fill="black"/>
<path d="M108.183 147.546L107.859 147.686L107.537 146.936L108.052 146.715C109.082 146.273 109.579 146.444 110.021 147.474L111.783 151.581L112.32 151.35L112.618 152.044L112.081 152.275L112.801 153.953L111.794 154.385L111.074 152.707L110.257 153.057L109.959 152.363L110.776 152.013L109.047 147.984C108.817 147.447 108.631 147.354 108.183 147.546Z" fill="black"/>
<path d="M96.7561 150.164L97.0282 151.489L95.8234 151.736L95.5513 150.412L96.7561 150.164Z" fill="black"/>
</g>
</g>
<path id="Arrow 20" d="M99.3082 108.849C100.48 110.02 102.379 110.02 103.551 108.849C104.722 107.677 104.722 105.778 103.551 104.606L99.3082 108.849ZM65.2982 67.5959C63.6414 67.5959 62.2982 68.9391 62.2982 70.5959L62.2982 97.5959C62.2982 99.2528 63.6414 100.596 65.2982 100.596C66.9551 100.596 68.2982 99.2528 68.2982 97.5959V73.5959H92.2982C93.9551 73.5959 95.2982 72.2528 95.2982 70.5959C95.2982 68.9391 93.9551 67.5959 92.2982 67.5959L65.2982 67.5959ZM103.551 104.606L67.4195 68.4746L63.1769 72.7173L99.3082 108.849L103.551 104.606Z" fill="black"/>
</g>
<defs>
<clipPath id="clip0_612_64">
<rect width="168" height="171" fill="white" transform="translate(0.499878 0.422852)"/>
</clipPath>
</defs>
</svg>
