<svg width="19" height="19" viewBox="0 0 19 19" fill="none" xmlns="http://www.w3.org/2000/svg">
<g id="Frame" clip-path="url(#clip0_612_61)">
<path id="Vector" d="M15.1229 9.85186L9.49791 15.4229L3.87291 9.85186C3.50189 9.49082 3.20964 9.05687 3.01457 8.57734C2.8195 8.0978 2.72583 7.58308 2.73946 7.06556C2.75309 6.54805 2.87373 6.03896 3.09377 5.57036C3.31382 5.10177 3.62851 4.6838 4.01802 4.3428C4.40753 4.00179 4.86344 3.74513 5.35702 3.58897C5.85059 3.43282 6.37116 3.38055 6.88593 3.43546C7.4007 3.49038 7.89853 3.65128 8.34806 3.90804C8.79759 4.1648 9.18909 4.51186 9.49791 4.92736C9.80806 4.51488 10.2 4.17085 10.6492 3.91682C11.0985 3.66278 11.5953 3.5042 12.1086 3.451C12.6219 3.3978 13.1407 3.45114 13.6325 3.60766C14.1243 3.76418 14.5784 4.02052 14.9666 4.36063C15.3547 4.70075 15.6685 5.11733 15.8882 5.58428C16.108 6.05124 16.229 6.55852 16.2436 7.07439C16.2583 7.59026 16.1664 8.10361 15.9735 8.5823C15.7807 9.06099 15.4911 9.49473 15.1229 9.85636" stroke="white" stroke-width="1.92019" stroke-linecap="round" stroke-linejoin="round"/>
</g>
<defs>
<clipPath id="clip0_612_61">
<rect width="18" height="18" fill="white" transform="translate(0.499878 0.422852)"/>
</clipPath>
</defs>
</svg>
