<svg width="32" height="32" viewBox="0 0 32 32" fill="none" xmlns="http://www.w3.org/2000/svg">
<g id="Frame" clip-path="url(#clip0_357_1315)">
<path id="Vector" d="M20.1282 17.1037C21.5099 17.3849 22.9455 17.2134 24.2221 16.6147C25.4988 16.0159 26.5485 15.0218 27.2158 13.7796C27.8831 12.5375 28.1324 11.1133 27.9267 9.71835C27.7211 8.32337 27.0715 7.03176 26.0742 6.03495C25.0769 5.03814 23.7849 4.38919 22.3898 4.18428C20.9947 3.97936 19.5707 4.22939 18.3289 4.89731C17.0871 5.56522 16.0935 6.61548 15.4954 7.89241C14.8973 9.16934 14.7266 10.605 15.0084 11.9866" stroke="white" stroke-width="1.5745" stroke-linecap="round" stroke-linejoin="round"/>
<path id="Vector_2" d="M20.1282 17.1037L15.0084 11.9879L5.15071 23.2509C4.65831 23.7427 4.38147 24.4101 4.3811 25.1061C4.38092 25.4507 4.44862 25.792 4.58033 26.1104C4.71204 26.4289 4.90519 26.7183 5.14874 26.9621C5.3923 27.2059 5.68149 27.3994 5.9998 27.5314C6.31812 27.6635 6.65933 27.7315 7.00395 27.7317C7.69994 27.7321 8.36758 27.4559 8.85998 26.9641L20.1282 17.1037Z" stroke="white" stroke-width="1.5745" stroke-linecap="round" stroke-linejoin="round"/>
</g>
<defs>
<clipPath id="clip0_357_1315">
<rect width="31.4901" height="31.4901" fill="white" transform="translate(0.446899 0.177795)"/>
</clipPath>
</defs>
</svg>
