<svg width="37" height="38" viewBox="0 0 37 38" fill="none" xmlns="http://www.w3.org/2000/svg">
<g id="Frame" clip-path="url(#clip0_357_1329)">
<path id="Vector" d="M27.7272 12.7928C28.9465 12.7928 30.1159 13.2772 30.9781 14.1393C31.8402 15.0015 32.3246 16.1709 32.3246 17.3902C32.3246 18.6095 31.8402 19.7789 30.9781 20.6411C30.1159 21.5032 28.9465 21.9876 27.7272 21.9876" stroke="white" stroke-width="1.53247" stroke-linecap="round" stroke-linejoin="round"/>
<path id="Vector_2" d="M15.4674 12.7928V29.65C15.4674 30.0564 15.306 30.4462 15.0186 30.7336C14.7312 31.021 14.3414 31.1824 13.9349 31.1824H12.4025C11.996 31.1824 11.6062 31.021 11.3188 30.7336C11.0315 30.4462 10.87 30.0564 10.87 29.65V21.9876" stroke="white" stroke-width="1.53247" stroke-linecap="round" stroke-linejoin="round"/>
<path id="Vector_3" d="M18.5324 12.7929L25.4653 7.01551C25.6667 6.84772 25.9118 6.74082 26.1718 6.70734C26.4319 6.67386 26.6961 6.71519 26.9334 6.82648C27.1708 6.93777 27.3716 7.11442 27.5121 7.33572C27.6527 7.55702 27.7273 7.8138 27.7272 8.07598V26.7047C27.7273 26.9669 27.6527 27.2237 27.5121 27.445C27.3716 27.6663 27.1708 27.8429 26.9334 27.9542C26.6961 28.0655 26.4319 28.1068 26.1718 28.0733C25.9118 28.0399 25.6667 27.933 25.4653 27.7652L18.5324 21.9878H6.27258C5.86615 21.9878 5.47636 21.8263 5.18896 21.5389C4.90157 21.2515 4.74011 20.8617 4.74011 20.4553V14.3254C4.74011 13.919 4.90157 13.5292 5.18896 13.2418C5.47636 12.9544 5.86615 12.7929 6.27258 12.7929H18.5324Z" stroke="white" stroke-width="1.53247" stroke-linecap="round" stroke-linejoin="round"/>
</g>
<defs>
<clipPath id="clip0_357_1329">
<rect width="36.7793" height="36.7793" fill="white" transform="translate(0.1427 0.533203)"/>
</clipPath>
</defs>
</svg>
