<svg width="175" height="175" viewBox="0 0 175 175" fill="none" xmlns="http://www.w3.org/2000/svg">
<g id="sticker">
<path id="Ellipse 44" d="M155.569 87.5148C155.569 125.589 124.906 156.308 87.2596 156.308C49.6133 156.308 18.9498 125.589 18.9498 87.5148C18.9498 49.4406 49.6133 18.7211 87.2596 18.7211C124.906 18.7211 155.569 49.4406 155.569 87.5148Z" stroke="#59FFDA" stroke-width="29.2891"/>
<path id="s" d="M84.3049 157.129L85.3665 156.829C85.4333 157.006 85.5318 157.178 85.662 157.345C85.7889 157.515 85.9625 157.655 86.1828 157.765C86.4032 157.875 86.6853 157.931 87.0291 157.931C87.4999 157.931 87.8922 157.822 88.206 157.605C88.5165 157.391 88.6717 157.119 88.6717 156.789C88.6717 156.495 88.5649 156.263 88.3512 156.093C88.1376 155.922 87.8037 155.781 87.3497 155.667L86.2079 155.387C85.5201 155.22 85.0076 154.964 84.6704 154.62C84.3332 154.28 84.1646 153.841 84.1646 153.303C84.1646 152.863 84.2915 152.469 84.5452 152.121C84.7956 151.774 85.1462 151.5 85.5969 151.3C86.0476 151.1 86.5718 151 87.1694 151C87.9539 151 88.6033 151.17 89.1174 151.51C89.6316 151.851 89.9571 152.348 90.094 153.003L88.9722 153.283C88.8654 152.869 88.6634 152.559 88.3662 152.352C88.0658 152.145 87.6735 152.041 87.1894 152.041C86.6385 152.041 86.2012 152.158 85.8773 152.392C85.5502 152.629 85.3866 152.913 85.3866 153.243C85.3866 153.51 85.48 153.734 85.667 153.914C85.854 154.098 86.1411 154.235 86.5284 154.325L87.8104 154.625C88.5148 154.792 89.0323 155.051 89.3628 155.402C89.69 155.755 89.8536 156.198 89.8536 156.729C89.8536 157.163 89.7317 157.547 89.488 157.88C89.241 158.214 88.9054 158.476 88.4814 158.667C88.0541 158.857 87.57 158.952 87.0291 158.952C86.268 158.952 85.6703 158.785 85.2363 158.451C84.799 158.118 84.4885 157.677 84.3049 157.129Z" fill="#24252A"/>
<path id="i" d="M81.2565 150.891L80.4783 158.544L79.3025 158.424L80.0807 150.771L81.2565 150.891ZM79.7507 159.758C79.9799 159.782 80.1696 159.88 80.3198 160.053C80.4667 160.225 80.529 160.421 80.5067 160.641C80.4844 160.86 80.3839 161.039 80.2053 161.179C80.0234 161.318 79.8178 161.376 79.5886 161.353C79.3594 161.329 79.1714 161.231 79.0245 161.059C78.8743 160.886 78.8104 160.69 78.8327 160.47C78.855 160.251 78.9571 160.072 79.139 159.933C79.3177 159.793 79.5216 159.735 79.7507 159.758Z" fill="#24252A"/>
<path id="n" d="M75.1487 154.755L76.0802 150.223L77.2379 150.461L75.6894 157.995L74.571 157.765L74.813 156.588L74.7148 156.568C74.4596 156.914 74.1283 157.167 73.7208 157.325C73.3127 157.486 72.8242 157.509 72.2551 157.392C71.745 157.287 71.3201 157.091 70.9805 156.803C70.6402 156.518 70.4071 156.143 70.2813 155.677C70.1547 155.215 70.1573 154.663 70.289 154.022L71.2729 149.235L72.4306 149.473L71.4628 154.182C71.3412 154.774 71.4001 155.267 71.6397 155.66C71.8785 156.057 72.2661 156.31 72.8024 156.42C73.172 156.496 73.5187 156.484 73.8427 156.384C74.1634 156.283 74.4387 156.095 74.6687 155.822C74.8987 155.549 75.0587 155.194 75.1487 154.755Z" fill="#24252A"/>
<path id="g" d="M68.6427 145.241C69.1874 145.412 69.6337 145.629 69.9815 145.892C70.3303 146.152 70.5999 146.436 70.7901 146.744C70.9782 147.048 71.1087 147.351 71.1816 147.654L70.0854 148.003C70.0255 147.837 69.9444 147.644 69.8423 147.423C69.7412 147.199 69.5753 146.98 69.3445 146.768C69.1115 146.552 68.7736 146.374 68.3308 146.235C67.7383 146.049 67.2044 146.039 66.729 146.205C66.2536 146.37 65.92 146.759 65.7281 147.371L65.2603 148.862L65.3559 148.892C65.4807 148.784 65.6505 148.655 65.8654 148.506C66.0761 148.358 66.3472 148.253 66.6786 148.189C67.0059 148.127 67.4085 148.171 67.8863 148.321C68.4788 148.507 68.9668 148.814 69.3503 149.242C69.7306 149.669 69.9738 150.193 70.0798 150.815C70.1827 151.435 70.1142 152.127 69.8743 152.891C69.6384 153.643 69.3009 154.256 68.8616 154.731C68.4213 155.209 67.9174 155.526 67.35 155.684C66.7816 155.845 66.1884 155.829 65.5704 155.635C65.0926 155.485 64.7385 155.287 64.5082 155.039C64.2737 154.794 64.113 154.548 64.0263 154.3C63.9353 154.055 63.8684 153.855 63.8256 153.702L63.7109 153.666L63.3451 154.832L62.2557 154.49L64.6244 146.941C64.8223 146.31 65.1266 145.842 65.5372 145.537C65.9456 145.228 66.4193 145.056 66.9583 145.022C67.4951 144.984 68.0565 145.057 68.6427 145.241ZM67.4156 149.286C66.9632 149.144 66.5485 149.128 66.1714 149.237C65.7942 149.346 65.4635 149.569 65.1791 149.907C64.8947 150.244 64.6675 150.684 64.4976 151.226C64.3317 151.754 64.2649 152.246 64.2973 152.701C64.3296 153.155 64.4659 153.546 64.7061 153.873C64.9463 154.201 65.2958 154.436 65.7545 154.58C66.2323 154.73 66.6685 154.734 67.063 154.592C67.4543 154.449 67.7936 154.198 68.0808 153.84C68.3648 153.482 68.5847 153.054 68.7407 152.557C68.9006 152.047 68.9624 151.571 68.926 151.13C68.8855 150.69 68.7425 150.309 68.4971 149.987C68.2476 149.668 67.887 149.434 67.4156 149.286Z" fill="#24252A"/>
<path id="i_2" d="M56.57 143.395L52.837 150.121L51.8036 149.547L55.5366 142.822L56.57 143.395ZM51.6894 150.95C51.8908 151.062 52.0264 151.227 52.0962 151.445C52.1631 151.662 52.1431 151.866 52.0361 152.059C51.9292 152.252 51.7661 152.377 51.5469 152.435C51.3248 152.491 51.1131 152.463 50.9117 152.351C50.7102 152.239 50.5761 152.075 50.5092 151.859C50.4394 151.64 50.458 151.435 50.5649 151.242C50.6718 151.05 50.8364 150.925 51.0585 150.869C51.2777 150.811 51.488 150.838 51.6894 150.95Z" fill="#24252A"/>
<path id="t" d="M44.3303 144.716L44.9025 143.894L48.1743 146.172L47.6021 146.994L44.3303 144.716ZM45.5957 147.843L44.6257 147.167L48.814 141.15C49.0047 140.876 49.108 140.643 49.1239 140.45C49.1352 140.259 49.094 140.096 49.0004 139.962C48.9021 139.828 48.7817 139.712 48.6392 139.613C48.5324 139.538 48.4409 139.483 48.3647 139.446C48.2867 139.412 48.2243 139.385 48.1774 139.365L48.5866 138.356C48.6696 138.377 48.7785 138.416 48.9135 138.474C49.0504 138.528 49.2093 138.618 49.3902 138.744C49.6642 138.935 49.8917 139.181 50.0728 139.482C50.2511 139.781 50.3426 140.111 50.3474 140.472C50.3495 140.832 50.2227 141.195 49.9671 141.562L45.5957 147.843Z" fill="#24252A"/>
<path id="." d="M40.518 130.912C40.6882 131.091 40.7701 131.306 40.7638 131.556C40.7574 131.806 40.6647 132.016 40.4857 132.186C40.3066 132.357 40.092 132.439 39.8418 132.432C39.5917 132.426 39.3815 132.333 39.2113 132.154C39.0411 131.975 38.9591 131.761 38.9655 131.51C38.9718 131.26 39.0645 131.05 39.2436 130.88C39.3621 130.767 39.4998 130.694 39.6565 130.66C39.8109 130.624 39.9655 130.627 40.1203 130.668C40.2704 130.71 40.403 130.791 40.518 130.912Z" fill="#24252A"/>
<path id="s_2" d="M26.1988 121.718L27.0153 122.46C26.9005 122.61 26.8067 122.785 26.7339 122.984C26.6565 123.181 26.6293 123.403 26.6524 123.648C26.6755 123.893 26.7779 124.162 26.9598 124.454C27.2088 124.853 27.5084 125.129 27.8586 125.28C28.2042 125.431 28.5172 125.419 28.7977 125.244C29.047 125.088 29.1874 124.875 29.2189 124.604C29.2504 124.332 29.1942 123.974 29.0503 123.528L28.6844 122.411C28.4622 121.739 28.4079 121.169 28.5213 120.701C28.632 120.235 28.9154 119.86 29.3715 119.575C29.7455 119.342 30.1469 119.241 30.5758 119.273C31.0029 119.302 31.4207 119.455 31.8291 119.731C32.2375 120.008 32.5998 120.399 32.9159 120.907C33.3309 121.572 33.5299 122.214 33.5129 122.83C33.4958 123.446 33.2459 123.986 32.7629 124.448L31.9316 123.644C32.2264 123.335 32.383 122.999 32.4015 122.638C32.4182 122.273 32.2986 121.885 32.0425 121.475C31.7511 121.007 31.4206 120.698 31.051 120.547C30.6767 120.394 30.3494 120.406 30.0689 120.58C29.8422 120.722 29.7018 120.919 29.6477 121.173C29.5908 121.429 29.6265 121.745 29.7549 122.122L30.178 123.368C30.409 124.055 30.4631 124.631 30.3405 125.096C30.2132 125.561 29.9243 125.934 29.4739 126.215C29.1055 126.445 28.7152 126.544 28.303 126.514C27.889 126.481 27.4891 126.335 27.1033 126.076C26.7158 125.814 26.3789 125.453 26.0928 124.994C25.6902 124.348 25.5157 123.753 25.5695 123.208C25.6215 122.66 25.8312 122.163 26.1988 121.718Z" fill="#24252A"/>
<path id="i_3" d="M29.8798 115.831L22.9738 119.219L22.4533 118.158L29.3593 114.77L29.8798 115.831ZM21.5581 119.244C21.6596 119.451 21.6766 119.664 21.6092 119.883C21.5404 120.099 21.4071 120.255 21.2092 120.352C21.0114 120.449 20.806 120.459 20.5931 120.381C20.3787 120.3 20.2208 120.156 20.1193 119.95C20.0179 119.743 20.0016 119.531 20.0704 119.315C20.1378 119.096 20.2704 118.938 20.4682 118.841C20.666 118.744 20.8721 118.736 21.0865 118.817C21.2995 118.895 21.4566 119.037 21.5581 119.244Z" fill="#24252A"/>
<path id="n_2" d="M23.3675 112.687L27.7068 111.08L28.1172 112.189L20.904 114.86L20.5074 113.789L21.6345 113.372L21.5997 113.278C21.1708 113.245 20.7814 113.097 20.4316 112.835C20.0786 112.574 19.8013 112.171 19.5995 111.626C19.4186 111.138 19.3605 110.674 19.4252 110.233C19.4868 109.794 19.6818 109.398 20.0103 109.044C20.3357 108.693 20.8052 108.403 21.4188 108.176L26.0023 106.478L26.4127 107.586L21.9044 109.256C21.3378 109.466 20.9508 109.777 20.7436 110.188C20.5333 110.601 20.5232 111.064 20.7134 111.577C20.8444 111.931 21.0382 112.219 21.2948 112.44C21.5502 112.659 21.8547 112.794 22.2081 112.844C22.5615 112.895 22.948 112.843 23.3675 112.687Z" fill="#24252A"/>
<path id="g_2" d="M28.0019 102.137C28.145 102.689 28.1969 103.183 28.1576 103.617C28.1216 104.051 28.0231 104.43 27.8623 104.754C27.7038 105.075 27.5154 105.346 27.297 105.568L26.4211 104.822C26.53 104.684 26.6513 104.513 26.7848 104.309C26.9216 104.105 27.019 103.848 27.0772 103.54C27.1377 103.228 27.1098 102.847 26.9935 102.398C26.8379 101.797 26.564 101.338 26.1718 101.022C25.7797 100.707 25.2733 100.629 24.6528 100.79L23.1402 101.181L23.1653 101.278C23.3228 101.327 23.5219 101.403 23.7624 101.507C23.9989 101.608 24.2319 101.782 24.4616 102.029C24.6871 102.274 24.8626 102.639 24.9882 103.124C25.1438 103.725 25.1414 104.302 24.9808 104.854C24.8194 105.402 24.5032 105.886 24.0322 106.305C23.5603 106.72 22.9366 107.028 22.1609 107.229C21.3981 107.426 20.6992 107.464 20.0642 107.342C19.4259 107.221 18.8897 106.962 18.4555 106.564C18.0182 106.167 17.7183 105.655 17.556 105.028C17.4305 104.543 17.4117 104.137 17.4996 103.811C17.5835 103.482 17.7076 103.216 17.8719 103.011C18.0321 102.804 18.166 102.642 18.2735 102.524L18.2434 102.408L17.0605 102.714L16.7743 101.609L24.4341 99.6257C25.0741 99.46 25.6321 99.4707 26.1082 99.6578C26.5866 99.8408 26.9828 100.152 27.2966 100.592C27.6128 101.027 27.8479 101.542 28.0019 102.137ZM23.9202 103.235C23.8014 102.776 23.5959 102.415 23.3038 102.153C23.0117 101.891 22.6472 101.728 22.2102 101.665C21.7732 101.603 21.28 101.642 20.7306 101.785C20.1941 101.924 19.7415 102.127 19.3729 102.395C19.0043 102.663 18.7446 102.985 18.5939 103.362C18.4432 103.739 18.4281 104.16 18.5486 104.626C18.6741 105.111 18.9016 105.483 19.2309 105.742C19.5594 105.999 19.9514 106.154 20.4069 106.209C20.8616 106.26 21.3411 106.22 21.8453 106.09C22.3624 105.956 22.7988 105.757 23.1545 105.492C23.5061 105.225 23.7536 104.902 23.897 104.524C24.0363 104.143 24.0441 103.713 23.9202 103.235Z" fill="#24252A"/>
<path id="i_4" d="M23.1851 90.9159L15.5029 91.3055L15.443 90.1252L23.1253 89.7356L23.1851 90.9159ZM14.1921 90.7703C14.2038 91.0004 14.1355 91.2027 13.9872 91.3774C13.8388 91.5487 13.6545 91.64 13.4345 91.6511C13.2144 91.6623 13.0219 91.5901 12.8569 91.4347C12.6917 91.2759 12.6033 91.0815 12.5916 90.8515C12.58 90.6214 12.6484 90.4207 12.7968 90.2494C12.945 90.0747 13.1292 89.9818 13.3493 89.9706C13.5693 89.9595 13.7619 90.0333 13.9271 90.192C14.0921 90.3475 14.1804 90.5402 14.1921 90.7703Z" fill="#24252A"/>
<path id="t_2" d="M15.5832 81.222L16.5835 81.2727L16.3816 85.2539L15.3813 85.2032L15.5832 81.222ZM13.5996 83.9495L13.6595 82.7692L20.9816 83.1405C21.315 83.1574 21.5675 83.1217 21.7392 83.0335C21.9076 82.9417 22.0241 82.8206 22.0885 82.6701C22.1498 82.5161 22.1849 82.3524 22.1937 82.179C22.2003 82.049 22.199 81.942 22.1899 81.8579C22.1775 81.7737 22.1675 81.7064 22.16 81.6558L23.2325 81.4695C23.2585 81.5511 23.2828 81.6643 23.3055 81.8092C23.3316 81.9543 23.3391 82.1368 23.3279 82.3569C23.311 82.6903 23.2227 83.0135 23.0631 83.3263C22.9037 83.6358 22.6719 83.8881 22.3679 84.0833C22.064 84.2751 21.6886 84.3597 21.2418 84.3371L13.5996 83.9495Z" fill="#24252A"/>
<path id="._2" d="M25.2868 70.6884C25.2249 70.9276 25.0861 71.1106 24.8705 71.2376C24.6548 71.3645 24.4274 71.397 24.1882 71.3351C23.9491 71.2732 23.766 71.1344 23.6391 70.9187C23.5121 70.7031 23.4796 70.4757 23.5415 70.2365C23.6035 69.9973 23.7423 69.8143 23.9579 69.6873C24.1736 69.5604 24.401 69.5279 24.6401 69.5898C24.7985 69.6308 24.9335 69.7089 25.0451 69.824C25.1575 69.9359 25.237 70.0685 25.2834 70.2219C25.3275 70.3713 25.3287 70.5268 25.2868 70.6884Z" fill="#24252A"/>
<path id="s_3" d="M29.2078 47.6105L28.9012 48.6704C28.7157 48.6335 28.5177 48.6261 28.3071 48.6483C28.0955 48.6659 27.8847 48.739 27.6746 48.8678C27.4646 48.9965 27.2686 49.2067 27.0867 49.4986C26.8377 49.8981 26.7223 50.2884 26.7404 50.6695C26.7575 51.046 26.9063 51.3217 27.1868 51.4965C27.4361 51.6519 27.6896 51.684 27.9471 51.5927C28.2046 51.5014 28.5016 51.2932 28.8381 50.9679L29.6801 50.1473C30.1856 49.6519 30.6734 49.3521 31.1436 49.2478C31.6109 49.1418 32.0727 49.231 32.5289 49.5153C32.9029 49.7484 33.1701 50.0644 33.3305 50.4634C33.4927 50.8596 33.5396 51.3019 33.4712 51.7903C33.4028 52.2788 33.2105 52.7766 32.8944 53.2837C32.4794 53.9495 31.9914 54.4105 31.4305 54.6667C30.8695 54.9229 30.2752 54.936 29.6474 54.7061L30.0028 53.6058C30.4107 53.7341 30.781 53.7269 31.1138 53.5842C31.4484 53.4387 31.7438 53.1606 31.9998 52.7497C32.2912 52.2823 32.4234 51.8493 32.3964 51.4508C32.3683 51.0478 32.214 50.7589 31.9335 50.584C31.7068 50.4428 31.4676 50.4038 31.2157 50.4671C30.9609 50.5286 30.6929 50.6999 30.4116 50.9808L29.4784 51.9099C28.9641 52.4194 28.4708 52.7217 27.9985 52.8167C27.5251 52.9072 27.0631 52.812 26.6126 52.5313C26.2443 52.3017 25.983 51.9952 25.8285 51.6118C25.6759 51.2255 25.631 50.8021 25.6938 50.3416C25.7583 49.8783 25.9336 49.4172 26.2197 48.9582C26.6224 48.3122 27.0802 47.8934 27.5931 47.7016C28.1077 47.5071 28.646 47.4767 29.2078 47.6105Z" fill="#24252A"/>
<path id="i_5" d="M36.1179 48.3235L30.0352 43.6152L30.7586 42.6806L36.8414 47.3889L36.1179 48.3235ZM29.3892 42.3552C29.2482 42.5374 29.0646 42.6465 28.8383 42.6824C28.6141 42.7157 28.4149 42.6649 28.2406 42.5301C28.0664 42.3952 27.9673 42.2151 27.9434 41.9896C27.9215 41.7616 27.981 41.5565 28.122 41.3743C28.263 41.1922 28.4456 41.0844 28.6698 41.0511C28.8961 41.0151 29.0964 41.0646 29.2706 41.1995C29.4449 41.3344 29.5429 41.5158 29.5648 41.7439C29.5888 41.9693 29.5303 42.1731 29.3892 42.3552Z" fill="#24252A"/>
<path id="n_3" d="M36.0736 41.0913L39.4274 44.2793L38.6131 45.1359L33.0379 39.8364L33.8246 39.0088L34.6957 39.8369L34.7647 39.7643C34.6058 39.3645 34.567 38.9498 34.6482 38.5204C34.727 38.0886 34.9665 37.6622 35.3667 37.2411C35.7256 36.8636 36.117 36.607 36.541 36.471C36.9625 36.3328 37.4041 36.3335 37.8658 36.4729C38.3251 36.61 38.7918 36.904 39.2661 37.3548L42.8087 40.7223L41.9944 41.5789L38.5099 38.2666C38.0719 37.8503 37.6226 37.6397 37.162 37.6349C36.699 37.6277 36.2788 37.8226 35.9016 38.2194C35.6417 38.4928 35.4687 38.7936 35.3825 39.1216C35.2987 39.4473 35.3118 39.7799 35.422 40.1195C35.5321 40.4592 35.7493 40.7831 36.0736 41.0913Z" fill="#24252A"/>
<path id="g_3" d="M47.5866 40.6061C47.1534 40.978 46.7332 41.2419 46.3259 41.3979C45.9208 41.5565 45.5372 41.635 45.1751 41.6335C44.8176 41.6323 44.4912 41.5826 44.1956 41.4843L44.4794 40.3695C44.6518 40.4063 44.8587 40.4398 45.1003 40.47C45.344 40.5028 45.6171 40.4774 45.9194 40.3939C46.2264 40.3108 46.5559 40.118 46.9081 39.8158C47.3792 39.4113 47.6702 38.9635 47.781 38.4724C47.8918 37.9812 47.7384 37.4925 47.3209 37.0061L46.3031 35.8206L46.2271 35.8859C46.2526 36.0488 46.272 36.261 46.2852 36.5224C46.2988 36.7791 46.2451 37.0651 46.124 37.3802C46.0033 37.6906 45.7529 38.009 45.373 38.3351C44.9018 38.7396 44.3831 38.9913 43.8168 39.0903C43.253 39.187 42.6796 39.1161 42.0964 38.8776C41.5157 38.6368 40.9644 38.2125 40.4425 37.6045C39.9292 37.0067 39.5875 36.3959 39.4172 35.7721C39.2447 35.1458 39.2415 34.5501 39.4076 33.9851C39.5716 33.4175 39.8993 32.9228 40.3908 32.5009C40.7707 32.1747 41.1266 31.9793 41.4582 31.9145C41.7902 31.8451 42.0843 31.8391 42.3403 31.8965C42.5967 31.9492 42.8014 31.9979 42.9542 32.0427L43.0454 31.9644L42.2495 31.0373L43.1158 30.2935L48.2698 36.2971C48.7004 36.7987 48.9366 37.3044 48.9782 37.8142C49.0246 38.3244 48.9196 38.8171 48.6632 39.2924C48.4116 39.7681 48.0527 40.206 47.5866 40.6061ZM44.803 37.4252C45.1627 37.1164 45.396 36.7731 45.5029 36.3954C45.6098 36.0176 45.5952 35.6187 45.4591 35.1988C45.323 34.7788 45.0701 34.3535 44.7004 33.9229C44.3394 33.5024 43.9575 33.1857 43.5546 32.9727C43.1518 32.7597 42.7479 32.6686 42.3431 32.6993C41.9383 32.73 41.5535 32.902 41.1887 33.2151C40.8087 33.5413 40.5747 33.9094 40.4867 34.3194C40.4012 34.7272 40.4342 35.1476 40.5859 35.5806C40.7402 36.0114 40.9869 36.4243 41.3262 36.8195C41.6741 37.2248 42.0452 37.5289 42.4393 37.7318C42.8338 37.9299 43.2326 38.01 43.6356 37.972C44.039 37.9293 44.4281 37.7471 44.803 37.4252Z" fill="#24252A"/>
<path id="i_6" d="M55.5399 31.3387L51.8068 24.6131L52.8402 24.0396L56.5732 30.7651L55.5399 31.3387ZM51.7101 23.2006C51.5087 23.3124 51.2969 23.3402 51.0748 23.284C50.8556 23.2262 50.6926 23.101 50.5856 22.9083C50.4787 22.7156 50.4587 22.511 50.5256 22.2944C50.5954 22.0762 50.731 21.9112 50.9324 21.7994C51.1338 21.6876 51.3441 21.6607 51.5633 21.7185C51.7854 21.7746 51.9499 21.8991 52.0569 22.0917C52.1638 22.2844 52.1824 22.4898 52.1126 22.708C52.0457 22.9246 51.9115 23.0888 51.7101 23.2006Z" fill="#24252A"/>
<path id="t_3" d="M60.8939 20.2465L61.2888 21.1669L57.6256 22.7389L57.2306 21.8185L60.8939 20.2465ZM57.5715 19.6668L58.6576 19.2007L61.5489 25.9381C61.6805 26.2449 61.8238 26.4559 61.9786 26.5711C62.1351 26.682 62.2952 26.7332 62.4587 26.7248C62.6239 26.712 62.7863 26.6713 62.9459 26.6029C63.0655 26.5515 63.1611 26.5033 63.2325 26.4581C63.3026 26.4098 63.3587 26.3712 63.4008 26.3423L64.0404 27.2231C63.9786 27.2823 63.8877 27.354 63.7676 27.4383C63.6488 27.5256 63.4882 27.6126 63.2857 27.6995C62.9789 27.8312 62.6499 27.8943 62.2988 27.8887C61.9507 27.8819 61.6221 27.7849 61.313 27.5979C61.0069 27.4095 60.7656 27.1098 60.5892 26.6987L57.5715 19.6668Z" fill="#24252A"/>
<path id="._3" d="M74.6261 24.3174C74.3841 24.3672 74.1586 24.3232 73.9496 24.1855C73.7407 24.0478 73.6114 23.8579 73.5616 23.6159C73.5119 23.3739 73.5559 23.1485 73.6936 22.9395C73.8313 22.7306 74.0211 22.6012 74.2631 22.5515C74.5051 22.5018 74.7306 22.5458 74.9395 22.6835C75.1485 22.8212 75.2778 23.011 75.3276 23.253C75.3605 23.4133 75.3499 23.5688 75.2957 23.7197C75.2447 23.8699 75.1606 23.9997 75.0433 24.109C74.9287 24.2143 74.7896 24.2838 74.6261 24.3174Z" fill="#24252A"/>
<path id="s_4" d="M89.9996 17.0305L88.9379 17.331C88.8712 17.154 88.7727 16.9821 88.6425 16.8152C88.5156 16.6449 88.342 16.5047 88.1217 16.3945C87.9013 16.2843 87.6192 16.2292 87.2753 16.2292C86.8046 16.2292 86.4123 16.3377 86.0985 16.5547C85.788 16.7684 85.6327 17.0405 85.6327 17.371C85.6327 17.6648 85.7396 17.8969 85.9532 18.0671C86.1669 18.2374 86.5008 18.3793 86.9548 18.4928L88.0966 18.7732C88.7844 18.9402 89.2968 19.1956 89.634 19.5394C89.9712 19.88 90.1398 20.319 90.1398 20.8565C90.1398 21.2972 90.013 21.6912 89.7592 22.0384C89.5088 22.3856 89.1583 22.6593 88.7076 22.8597C88.2569 23.06 87.7327 23.1601 87.1351 23.1601C86.3505 23.1601 85.7012 22.9899 85.187 22.6493C84.6729 22.3088 84.3474 21.8113 84.2105 21.157L85.3323 20.8765C85.4391 21.2905 85.6411 21.601 85.9382 21.808C86.2387 22.015 86.631 22.1185 87.1151 22.1185C87.6659 22.1185 88.1033 22.0016 88.4271 21.7679C88.7543 21.5309 88.9179 21.2471 88.9179 20.9166C88.9179 20.6495 88.8244 20.4258 88.6375 20.2455C88.4505 20.0619 88.1634 19.925 87.7761 19.8349L86.4941 19.5344C85.7897 19.3675 85.2722 19.1088 84.9417 18.7582C84.6145 18.4043 84.4509 17.962 84.4509 17.4311C84.4509 16.9971 84.5727 16.6132 84.8165 16.2793C85.0635 15.9455 85.399 15.6834 85.823 15.4931C86.2504 15.3028 86.7345 15.2076 87.2753 15.2076C88.0365 15.2076 88.6341 15.3746 89.0681 15.7084C89.5055 16.0423 89.816 16.483 89.9996 17.0305Z" fill="#24252A"/>
<path id="i_7" d="M93.048 23.2688L93.8262 15.6162L95.002 15.7357L94.2237 23.3883L93.048 23.2688ZM94.5537 14.4015C94.3245 14.3782 94.1349 14.2801 93.9847 14.1071C93.8378 13.9344 93.7755 13.7385 93.7978 13.5192C93.8201 13.3 93.9205 13.1206 94.0992 12.9811C94.2811 12.8419 94.4867 12.7839 94.7159 12.8072C94.945 12.8305 95.1331 12.9285 95.2799 13.1012C95.4301 13.2742 95.4941 13.4703 95.4718 13.6895C95.4495 13.9087 95.3474 14.0879 95.1654 14.2271C94.9868 14.3667 94.7829 14.4248 94.5537 14.4015Z" fill="#24252A"/>
<path id="n_4" d="M99.1642 19.4042L98.2328 23.9368L97.0751 23.6989L98.6235 16.1642L99.7419 16.3941L99.5 17.5714L99.5981 17.5915C99.8533 17.2452 100.185 16.9929 100.592 16.8347C101 16.6731 101.489 16.6508 102.058 16.7678C102.568 16.8726 102.993 17.069 103.332 17.3569C103.673 17.6416 103.906 18.0167 104.032 18.4822C104.158 18.9445 104.156 19.4961 104.024 20.1371L103.04 24.9247L101.882 24.6868L102.85 19.9776C102.972 19.3857 102.913 18.893 102.673 18.4996C102.434 18.1028 102.047 17.8494 101.511 17.7391C101.141 17.6632 100.794 17.6754 100.47 17.7759C100.15 17.877 99.8742 18.0641 99.6443 18.3372C99.4143 18.6103 99.2543 18.966 99.1642 19.4042Z" fill="#24252A"/>
<path id="g_4" d="M105.662 28.9183C105.117 28.7474 104.671 28.5304 104.323 28.2673C103.974 28.0074 103.705 27.7234 103.514 27.4152C103.326 27.1113 103.196 26.8079 103.123 26.5051L104.219 26.1562C104.279 26.322 104.36 26.5154 104.462 26.7364C104.563 26.9605 104.729 27.1788 104.96 27.3912C105.193 27.6077 105.531 27.7855 105.974 27.9244C106.566 28.1103 107.1 28.1204 107.575 27.9546C108.051 27.7888 108.385 27.4002 108.576 26.7886L109.044 25.2978L108.949 25.2678C108.824 25.3756 108.654 25.5042 108.439 25.6538C108.228 25.8011 107.957 25.9068 107.626 25.9707C107.299 26.0325 106.896 25.9884 106.418 25.8385C105.826 25.6526 105.338 25.3455 104.954 24.9173C104.574 24.49 104.331 23.9659 104.225 23.3448C104.122 22.7247 104.19 22.0323 104.43 21.2678C104.666 20.5161 105.004 19.9029 105.443 19.4284C105.883 18.9507 106.387 18.6329 106.954 18.4751C107.523 18.314 108.116 18.3304 108.734 18.5243C109.212 18.6742 109.566 18.8728 109.796 19.12C110.031 19.365 110.191 19.6114 110.278 19.859C110.369 20.1045 110.436 20.3039 110.479 20.4573L110.594 20.4933L110.959 19.3274L112.049 19.6692L109.68 27.2188C109.482 27.8495 109.178 28.3174 108.767 28.6225C108.359 28.9317 107.885 29.1032 107.346 29.1371C106.809 29.1751 106.248 29.1022 105.662 28.9183ZM106.889 24.8735C107.341 25.0154 107.756 25.0318 108.133 24.9227C108.51 24.8136 108.841 24.5902 109.125 24.2525C109.41 23.9149 109.637 23.4753 109.807 22.9338C109.973 22.405 110.04 21.9133 110.007 21.4588C109.975 21.0043 109.839 20.6134 109.598 20.2861C109.358 19.9588 109.009 19.7231 108.55 19.5792C108.072 19.4293 107.636 19.4254 107.242 19.5676C106.85 19.7107 106.511 19.9612 106.224 20.319C105.94 20.6777 105.72 21.1056 105.564 21.6025C105.404 22.1122 105.342 22.5879 105.378 23.0297C105.419 23.4693 105.562 23.8501 105.807 24.172C106.057 24.4917 106.417 24.7256 106.889 24.8735Z" fill="#24252A"/>
<path id="i_8" d="M117.734 30.7643L121.467 24.0388L122.501 24.6123L118.768 31.3379L117.734 30.7643ZM122.615 23.2095C122.414 23.0977 122.278 22.9327 122.208 22.7145C122.141 22.4979 122.161 22.2933 122.268 22.1006C122.375 21.908 122.538 21.7827 122.758 21.7249C122.98 21.6687 123.191 21.6965 123.393 21.8083C123.594 21.9201 123.728 22.0843 123.795 22.3009C123.865 22.5191 123.847 22.7245 123.74 22.9172C123.633 23.1099 123.468 23.2343 123.246 23.2905C123.027 23.3483 122.817 23.3213 122.615 23.2095Z" fill="#24252A"/>
<path id="t_4" d="M129.983 29.4431L129.41 30.2652L126.139 27.988L126.711 27.1659L129.983 29.4431ZM128.717 26.317L129.687 26.9922L125.499 33.0096C125.308 33.2836 125.205 33.5168 125.189 33.7091C125.178 33.9006 125.219 34.0635 125.313 34.1978C125.411 34.3313 125.531 34.4476 125.674 34.5468C125.781 34.6212 125.872 34.6767 125.948 34.7134C126.026 34.7474 126.089 34.7746 126.136 34.795L125.726 35.8037C125.643 35.7826 125.534 35.7433 125.399 35.686C125.263 35.6314 125.104 35.5411 124.923 35.4153C124.649 35.2246 124.421 34.9787 124.24 34.6778C124.062 34.3788 123.97 34.0486 123.966 33.6874C123.963 33.328 124.09 32.9647 124.346 32.5975L128.717 26.317Z" fill="#24252A"/>
<path id="._4" d="M133.791 43.2474C133.621 43.0684 133.539 42.8538 133.545 42.6036C133.551 42.3535 133.644 42.1433 133.823 41.9731C134.002 41.8029 134.217 41.7209 134.467 41.7273C134.717 41.7336 134.927 41.8263 135.097 42.0054C135.268 42.1844 135.35 42.399 135.343 42.6492C135.337 42.8993 135.244 43.1095 135.065 43.2797C134.947 43.3925 134.809 43.4657 134.652 43.4995C134.498 43.5358 134.343 43.533 134.188 43.4913C134.038 43.4497 133.906 43.3684 133.791 43.2474Z" fill="#24252A"/>
<path id="s_5" d="M151.299 58.7861L150.562 57.9652C150.691 57.8273 150.802 57.6632 150.895 57.4728C150.992 57.2839 151.041 57.0663 151.043 56.8199C151.045 56.5736 150.97 56.2961 150.819 55.9873C150.611 55.5647 150.341 55.2603 150.008 55.0741C149.679 54.8894 149.367 54.8699 149.07 55.0154C148.806 55.1448 148.645 55.3429 148.586 55.6097C148.527 55.8766 148.547 56.2388 148.645 56.6964L148.896 57.845C149.049 58.536 149.046 59.1086 148.885 59.5628C148.728 60.0155 148.408 60.3602 147.926 60.5969C147.53 60.791 147.12 60.8505 146.697 60.7757C146.275 60.7038 145.875 60.5096 145.496 60.1932C145.118 59.8767 144.797 59.4503 144.534 58.9137C144.189 58.2093 144.056 57.5514 144.135 56.9398C144.214 56.3282 144.517 55.8169 145.045 55.4059L145.79 56.2895C145.466 56.5677 145.276 56.8858 145.221 57.2437C145.168 57.6046 145.247 58.0024 145.461 58.437C145.703 58.9316 146.001 59.2728 146.353 59.4606C146.71 59.65 147.037 59.6719 147.334 59.5263C147.573 59.4087 147.733 59.2262 147.813 58.979C147.895 58.7303 147.892 58.4122 147.802 58.0248L147.507 56.7415C147.347 56.0355 147.351 55.457 147.52 55.0059C147.694 54.5563 148.019 54.2146 148.496 53.9808C148.885 53.7897 149.284 53.73 149.691 53.8018C150.099 53.8766 150.482 54.0624 150.84 54.3593C151.199 54.6591 151.498 55.0518 151.736 55.5374C152.071 56.2208 152.184 56.8309 152.076 57.3676C151.969 57.9072 151.71 58.3801 151.299 58.7861Z" fill="#24252A"/>
<path id="i_9" d="M147.039 64.2696L154.252 61.5981L154.663 62.7064L147.449 65.3779L147.039 64.2696ZM155.663 61.7164C155.583 61.5004 155.588 61.2869 155.677 61.0758C155.767 60.8679 155.916 60.7257 156.122 60.6492C156.329 60.5726 156.534 60.5838 156.738 60.6828C156.943 60.7848 157.086 60.9438 157.166 61.1598C157.246 61.3759 157.241 61.5878 157.15 61.7957C157.061 62.0068 156.913 62.1505 156.707 62.2271C156.5 62.3036 156.294 62.2908 156.089 62.1888C155.885 62.0899 155.743 61.9324 155.663 61.7164Z" fill="#24252A"/>
<path id="n_5" d="M153.201 68.0567L148.721 69.2165L148.425 68.0724L155.871 66.1444L156.158 67.2497L154.994 67.551L155.019 67.6479C155.443 67.7245 155.815 67.9109 156.136 68.207C156.461 68.5023 156.696 68.9311 156.842 69.4935C156.973 69.9977 156.983 70.4656 156.874 70.8973C156.769 71.3282 156.535 71.7026 156.172 72.0206C155.813 72.3378 155.316 72.5784 154.683 72.7424L149.951 73.9675L149.655 72.8234L154.309 71.6184C154.894 71.4669 155.31 71.197 155.558 70.8087C155.809 70.4196 155.866 69.9599 155.729 69.4299C155.634 69.0647 155.471 68.7588 155.238 68.5121C155.006 68.2687 154.717 68.1039 154.37 68.0177C154.024 67.9316 153.634 67.9445 153.201 68.0567Z" fill="#24252A"/>
<path id="g_5" d="M147.524 78.0842C147.437 77.5199 147.435 77.0237 147.518 76.5955C147.598 76.1679 147.734 75.8008 147.927 75.4943C148.117 75.1916 148.332 74.9408 148.572 74.742L149.368 75.5725C149.246 75.6994 149.108 75.8573 148.954 76.0463C148.797 76.2358 148.675 76.4809 148.586 76.7816C148.494 77.0862 148.483 77.4678 148.553 77.9265C148.647 78.5403 148.873 79.0241 149.232 79.3779C149.59 79.7317 150.086 79.8601 150.719 79.7631L152.264 79.5265L152.248 79.4275C152.097 79.3629 151.906 79.2671 151.678 79.14C151.453 79.0157 151.238 78.8189 151.035 78.5495C150.835 78.2828 150.698 77.902 150.622 77.407C150.528 76.7932 150.588 76.2198 150.804 75.6869C151.02 75.1573 151.384 74.7081 151.895 74.3394C152.406 73.9739 153.058 73.7306 153.85 73.6092C154.629 73.4899 155.328 73.523 155.947 73.7084C156.57 73.8934 157.077 74.2058 157.469 74.6456C157.864 75.085 158.11 75.6248 158.208 76.265C158.284 76.76 158.262 77.1654 158.141 77.4811C158.025 77.7995 157.874 78.0523 157.69 78.2392C157.51 78.429 157.36 78.5768 157.241 78.6829L157.259 78.8017L158.467 78.6166L158.64 79.7453L150.819 80.9434C150.166 81.0435 149.612 80.9764 149.157 80.7421C148.699 80.5116 148.337 80.1618 148.069 79.6928C147.798 79.2276 147.617 78.6914 147.524 78.0842ZM151.695 77.4046C151.767 77.8732 151.935 78.2528 152.199 78.5433C152.463 78.8339 152.809 79.0325 153.238 79.1391C153.666 79.2457 154.161 79.2561 154.722 79.1701C155.27 79.0862 155.741 78.9296 156.134 78.7004C156.528 78.4712 156.819 78.1767 157.007 77.8169C157.195 77.4571 157.253 77.0396 157.18 76.5644C157.104 76.0694 156.916 75.6761 156.614 75.3845C156.314 75.0962 155.939 74.9019 155.492 74.8016C155.044 74.7046 154.563 74.6956 154.049 74.7744C153.521 74.8553 153.066 75.0094 152.686 75.2365C152.309 75.4665 152.03 75.7626 151.849 76.1247C151.672 76.4895 151.621 76.9162 151.695 77.4046Z" fill="#24252A"/>
<path id="i_10" d="M151.18 89.7347L158.862 90.1243L158.802 91.3046L151.12 90.915L151.18 89.7347ZM160.112 90.7894C160.124 90.5593 160.212 90.3649 160.377 90.2062C160.542 90.0507 160.735 89.9786 160.955 89.9897C161.175 90.0009 161.359 90.0921 161.508 90.2635C161.656 90.4381 161.724 90.6405 161.713 90.8706C161.701 91.1006 161.613 91.2934 161.448 91.4488C161.282 91.6076 161.09 91.6814 160.87 91.6702C160.65 91.6591 160.466 91.5662 160.317 91.3915C160.169 91.2202 160.101 91.0195 160.112 90.7894Z" fill="#24252A"/>
<path id="t_5" d="M157.762 100.148L156.772 99.9961L157.375 96.0558L158.365 96.2075L157.762 100.148ZM160.011 97.635L159.832 98.8032L152.585 97.693C152.255 97.6425 152 97.6524 151.82 97.7228C151.644 97.7971 151.515 97.9058 151.436 98.049C151.36 98.196 151.308 98.3553 151.282 98.5269C151.262 98.6556 151.253 98.7622 151.253 98.8468C151.257 98.9318 151.26 98.9998 151.262 99.0508L150.177 99.1277C150.159 99.0439 150.146 98.9288 150.138 98.7824C150.127 98.6354 150.138 98.453 150.171 98.2352C150.222 97.9052 150.342 97.5927 150.533 97.2976C150.723 97.0058 150.979 96.7782 151.301 96.6148C151.623 96.4547 152.005 96.4085 152.447 96.4763L160.011 97.635Z" fill="#24252A"/>
<path id="._5" d="M147.044 109.646C147.13 109.415 147.287 109.246 147.514 109.142C147.741 109.037 147.971 109.028 148.203 109.114C148.434 109.2 148.602 109.356 148.707 109.584C148.811 109.811 148.821 110.041 148.735 110.272C148.649 110.504 148.492 110.672 148.265 110.777C148.038 110.881 147.808 110.89 147.576 110.805C147.423 110.748 147.297 110.656 147.197 110.531C147.097 110.408 147.031 110.268 147 110.111C146.972 109.958 146.986 109.803 147.044 109.646Z" fill="#24252A"/>
<path id="s_6" d="M145.097 126.549L145.403 125.489C145.589 125.526 145.787 125.533 145.997 125.511C146.209 125.494 146.42 125.421 146.63 125.292C146.84 125.163 147.036 124.953 147.218 124.661C147.467 124.261 147.582 123.871 147.564 123.49C147.547 123.114 147.398 122.838 147.118 122.663C146.868 122.508 146.615 122.476 146.357 122.567C146.1 122.658 145.803 122.866 145.466 123.192L144.624 124.012C144.119 124.508 143.631 124.807 143.161 124.912C142.694 125.018 142.232 124.929 141.776 124.644C141.402 124.411 141.134 124.095 140.974 123.696C140.812 123.3 140.765 122.858 140.833 122.369C140.902 121.881 141.094 121.383 141.41 120.876C141.825 120.21 142.313 119.749 142.874 119.493C143.435 119.237 144.029 119.224 144.657 119.453L144.302 120.554C143.894 120.425 143.523 120.433 143.191 120.575C142.856 120.721 142.561 120.999 142.305 121.41C142.013 121.877 141.881 122.31 141.908 122.709C141.936 123.112 142.09 123.401 142.371 123.576C142.598 123.717 142.837 123.756 143.089 123.692C143.344 123.631 143.612 123.46 143.893 123.179L144.826 122.25C145.34 121.74 145.834 121.438 146.306 121.343C146.779 121.252 147.241 121.347 147.692 121.628C148.06 121.858 148.322 122.164 148.476 122.548C148.629 122.934 148.674 123.357 148.611 123.818C148.546 124.281 148.371 124.742 148.085 125.201C147.682 125.847 147.224 126.266 146.711 126.458C146.197 126.652 145.659 126.683 145.097 126.549Z" fill="#24252A"/>
<path id="i_11" d="M138.187 125.836L144.269 130.544L143.546 131.479L137.463 126.771L138.187 125.836ZM144.915 131.804C145.056 131.622 145.24 131.513 145.466 131.477C145.69 131.444 145.89 131.494 146.064 131.629C146.238 131.764 146.337 131.944 146.361 132.17C146.383 132.398 146.323 132.603 146.182 132.785C146.041 132.967 145.859 133.075 145.635 133.108C145.408 133.144 145.208 133.095 145.034 132.96C144.86 132.825 144.762 132.644 144.74 132.416C144.716 132.19 144.774 131.986 144.915 131.804Z" fill="#24252A"/>
<path id="n_6" d="M138.231 133.068L134.877 129.88L135.691 129.024L141.267 134.323L140.48 135.151L139.609 134.323L139.54 134.395C139.699 134.795 139.738 135.21 139.656 135.639C139.578 136.071 139.338 136.497 138.938 136.918C138.579 137.296 138.188 137.553 137.764 137.688C137.342 137.827 136.9 137.826 136.439 137.687C135.979 137.55 135.513 137.256 135.038 136.805L131.496 133.437L132.31 132.581L135.795 135.893C136.233 136.309 136.682 136.52 137.142 136.525C137.606 136.532 138.026 136.337 138.403 135.94C138.663 135.667 138.836 135.366 138.922 135.038C139.006 134.712 138.993 134.38 138.883 134.04C138.772 133.7 138.555 133.376 138.231 133.068Z" fill="#24252A"/>
<path id="g_6" d="M126.718 133.554C127.151 133.182 127.571 132.918 127.979 132.762C128.384 132.603 128.767 132.525 129.129 132.526C129.487 132.527 129.813 132.577 130.109 132.675L129.825 133.79C129.653 133.754 129.446 133.72 129.204 133.69C128.96 133.657 128.687 133.682 128.385 133.766C128.078 133.849 127.749 134.042 127.396 134.344C126.925 134.749 126.634 135.196 126.523 135.687C126.413 136.179 126.566 136.667 126.984 137.154L128.001 138.339L128.077 138.274C128.052 138.111 128.032 137.899 128.019 137.637C128.006 137.381 128.059 137.095 128.18 136.78C128.301 136.469 128.551 136.151 128.931 135.825C129.403 135.42 129.921 135.168 130.488 135.07C131.051 134.973 131.625 135.044 132.208 135.282C132.789 135.523 133.34 135.947 133.862 136.555C134.375 137.153 134.717 137.764 134.887 138.388C135.06 139.014 135.063 139.61 134.897 140.175C134.733 140.742 134.405 141.237 133.914 141.659C133.534 141.985 133.178 142.181 132.846 142.245C132.514 142.315 132.22 142.321 131.964 142.263C131.708 142.211 131.503 142.162 131.35 142.117L131.259 142.195L132.055 143.123L131.189 143.866L126.035 137.863C125.604 137.361 125.368 136.855 125.326 136.346C125.28 135.835 125.385 135.343 125.641 134.867C125.893 134.392 126.252 133.954 126.718 133.554ZM129.501 136.735C129.142 137.043 128.908 137.387 128.802 137.764C128.695 138.142 128.709 138.541 128.845 138.961C128.981 139.381 129.234 139.806 129.604 140.237C129.965 140.657 130.347 140.974 130.75 141.187C131.153 141.4 131.557 141.491 131.961 141.46C132.366 141.43 132.751 141.258 133.116 140.945C133.496 140.618 133.73 140.25 133.818 139.84C133.903 139.433 133.87 139.012 133.718 138.579C133.564 138.148 133.318 137.735 132.978 137.34C132.63 136.935 132.259 136.631 131.865 136.428C131.471 136.23 131.072 136.15 130.669 136.188C130.265 136.23 129.876 136.413 129.501 136.735Z" fill="#24252A"/>
<path id="i_12" d="M118.769 142.821L122.502 149.546L121.469 150.12L117.735 143.394L118.769 142.821ZM122.599 150.959C122.8 150.847 123.012 150.819 123.234 150.876C123.453 150.933 123.616 151.059 123.723 151.251C123.83 151.444 123.85 151.649 123.783 151.865C123.713 152.083 123.578 152.248 123.376 152.36C123.175 152.472 122.965 152.499 122.745 152.441C122.523 152.385 122.359 152.26 122.252 152.068C122.145 151.875 122.126 151.67 122.196 151.452C122.263 151.235 122.397 151.071 122.599 150.959Z" fill="#24252A"/>
<path id="t_6" d="M113.411 153.913L113.016 152.993L116.679 151.421L117.074 152.341L113.411 153.913ZM116.733 154.493L115.647 154.959L112.756 148.221C112.624 147.915 112.481 147.704 112.326 147.588C112.169 147.478 112.009 147.426 111.846 147.435C111.681 147.448 111.518 147.488 111.359 147.557C111.239 147.608 111.143 147.656 111.072 147.701C111.002 147.75 110.946 147.788 110.904 147.817L110.264 146.936C110.326 146.877 110.417 146.806 110.537 146.721C110.656 146.634 110.816 146.547 111.019 146.46C111.326 146.328 111.655 146.265 112.006 146.271C112.354 146.278 112.682 146.375 112.992 146.562C113.298 146.75 113.539 147.05 113.715 147.461L116.733 154.493Z" fill="#24252A"/>
<path id="._6" d="M99.6827 149.842C99.9247 149.793 100.15 149.837 100.359 149.974C100.568 150.112 100.697 150.302 100.747 150.544C100.797 150.786 100.753 151.011 100.615 151.22C100.477 151.429 100.288 151.559 100.046 151.608C99.8036 151.658 99.5781 151.614 99.3692 151.476C99.1602 151.339 99.0309 151.149 98.9812 150.907C98.9482 150.747 98.9589 150.591 99.0131 150.44C99.064 150.29 99.1481 150.16 99.2654 150.051C99.3801 149.945 99.5192 149.876 99.6827 149.842Z" fill="#24252A"/>
</g>
</svg>
