<svg width="31" height="32" viewBox="0 0 31 32" fill="none" xmlns="http://www.w3.org/2000/svg">
<path id="Union" fill-rule="evenodd" clip-rule="evenodd" d="M28.4353 17.0005C27.9242 23.8436 22.21 29.2368 15.2362 29.2368C7.92598 29.2368 1.99988 23.3107 1.99988 16.0005C1.99988 8.69027 7.92598 2.76416 15.2362 2.76416C22.21 2.76416 27.9242 8.15738 28.4353 15.0005L11.2891 15.0005L15.9459 10.3436C16.3365 9.95311 16.3365 9.31994 15.9459 8.92942C15.5554 8.53889 14.9223 8.53889 14.5317 8.92942L8.16777 15.2934C7.77725 15.6839 7.77725 16.3171 8.16777 16.7076L14.5317 23.0716C14.9223 23.4621 15.5554 23.4621 15.9459 23.0716C16.3365 22.681 16.3365 22.0479 15.9459 21.6573L11.2891 17.0005L28.4353 17.0005ZM30.4725 16.0005C30.4725 24.4153 23.651 31.2368 15.2362 31.2368C6.82141 31.2368 -0.00012207 24.4153 -0.00012207 16.0005C-0.00012207 7.5857 6.82141 0.76416 15.2362 0.76416C23.651 0.76416 30.4725 7.5857 30.4725 16.0005Z" fill="white"/>
</svg>
